<mxfile host="app.diagrams.net" agent="Mozilla/5.0 (Windows NT 10.0; Win64; x64) AppleWebKit/537.36 (KHTML, like Gecko) Chrome/131.0.0.0 Safari/537.36" version="25.0.3">
  <diagram name="페이지-1" id="Dgcx4zM-HbP8MREHNESY">
    <mxGraphModel dx="643" dy="399" grid="1" gridSize="10" guides="1" tooltips="1" connect="1" arrows="1" fold="1" page="1" pageScale="1" pageWidth="827" pageHeight="1169" math="0" shadow="0">
      <root>
        <mxCell id="0" />
        <mxCell id="1" parent="0" />
        <mxCell id="HQbXodOyn_7Oqjs9133s-1" value="" style="rounded=0;whiteSpace=wrap;html=1;" vertex="1" parent="1">
          <mxGeometry x="40" y="70" width="1030" height="830" as="geometry" />
        </mxCell>
        <mxCell id="HQbXodOyn_7Oqjs9133s-2" value="USER" style="whiteSpace=wrap;html=1;align=center;" vertex="1" parent="1">
          <mxGeometry x="140" y="180" width="100" height="40" as="geometry" />
        </mxCell>
        <mxCell id="HQbXodOyn_7Oqjs9133s-3" value="CHAT" style="whiteSpace=wrap;html=1;align=center;" vertex="1" parent="1">
          <mxGeometry x="720" y="180" width="100" height="40" as="geometry" />
        </mxCell>
        <mxCell id="HQbXodOyn_7Oqjs9133s-4" value="ARTICLE" style="whiteSpace=wrap;html=1;align=center;" vertex="1" parent="1">
          <mxGeometry x="330" y="300" width="100" height="40" as="geometry" />
        </mxCell>
        <mxCell id="HQbXodOyn_7Oqjs9133s-5" value="SEND" style="shape=rhombus;perimeter=rhombusPerimeter;whiteSpace=wrap;html=1;align=center;" vertex="1" parent="1">
          <mxGeometry x="440" y="170" width="120" height="60" as="geometry" />
        </mxCell>
        <mxCell id="HQbXodOyn_7Oqjs9133s-6" value="" style="endArrow=none;html=1;rounded=0;exitX=1;exitY=0.5;exitDx=0;exitDy=0;entryX=0;entryY=0.5;entryDx=0;entryDy=0;" edge="1" parent="1" source="HQbXodOyn_7Oqjs9133s-2" target="HQbXodOyn_7Oqjs9133s-5">
          <mxGeometry relative="1" as="geometry">
            <mxPoint x="330" y="390" as="sourcePoint" />
            <mxPoint x="490" y="390" as="targetPoint" />
          </mxGeometry>
        </mxCell>
        <mxCell id="HQbXodOyn_7Oqjs9133s-7" value="1" style="resizable=0;html=1;whiteSpace=wrap;align=right;verticalAlign=bottom;" connectable="0" vertex="1" parent="HQbXodOyn_7Oqjs9133s-6">
          <mxGeometry x="1" relative="1" as="geometry" />
        </mxCell>
        <mxCell id="HQbXodOyn_7Oqjs9133s-8" value="" style="endArrow=none;html=1;rounded=0;entryX=1;entryY=0.5;entryDx=0;entryDy=0;exitX=0;exitY=0.5;exitDx=0;exitDy=0;" edge="1" parent="1" source="HQbXodOyn_7Oqjs9133s-3" target="HQbXodOyn_7Oqjs9133s-5">
          <mxGeometry relative="1" as="geometry">
            <mxPoint x="330" y="390" as="sourcePoint" />
            <mxPoint x="490" y="390" as="targetPoint" />
          </mxGeometry>
        </mxCell>
        <mxCell id="HQbXodOyn_7Oqjs9133s-9" value="N" style="resizable=0;html=1;whiteSpace=wrap;align=right;verticalAlign=bottom;" connectable="0" vertex="1" parent="HQbXodOyn_7Oqjs9133s-8">
          <mxGeometry x="1" relative="1" as="geometry">
            <mxPoint x="10" as="offset" />
          </mxGeometry>
        </mxCell>
        <mxCell id="HQbXodOyn_7Oqjs9133s-10" value="POST" style="shape=rhombus;perimeter=rhombusPerimeter;whiteSpace=wrap;html=1;align=center;" vertex="1" parent="1">
          <mxGeometry x="130" y="290" width="120" height="60" as="geometry" />
        </mxCell>
        <mxCell id="HQbXodOyn_7Oqjs9133s-11" value="" style="endArrow=none;html=1;rounded=0;exitX=0.5;exitY=1;exitDx=0;exitDy=0;entryX=0.5;entryY=0;entryDx=0;entryDy=0;" edge="1" parent="1" source="HQbXodOyn_7Oqjs9133s-2" target="HQbXodOyn_7Oqjs9133s-10">
          <mxGeometry relative="1" as="geometry">
            <mxPoint x="250" y="210" as="sourcePoint" />
            <mxPoint x="330" y="210" as="targetPoint" />
          </mxGeometry>
        </mxCell>
        <mxCell id="HQbXodOyn_7Oqjs9133s-12" value="1" style="resizable=0;html=1;whiteSpace=wrap;align=right;verticalAlign=bottom;" connectable="0" vertex="1" parent="HQbXodOyn_7Oqjs9133s-11">
          <mxGeometry x="1" relative="1" as="geometry" />
        </mxCell>
        <mxCell id="HQbXodOyn_7Oqjs9133s-13" value="" style="endArrow=none;html=1;rounded=0;entryX=1;entryY=0.5;entryDx=0;entryDy=0;exitX=0;exitY=0.5;exitDx=0;exitDy=0;" edge="1" parent="1" source="HQbXodOyn_7Oqjs9133s-4" target="HQbXodOyn_7Oqjs9133s-10">
          <mxGeometry relative="1" as="geometry">
            <mxPoint x="520" y="210" as="sourcePoint" />
            <mxPoint x="450" y="210" as="targetPoint" />
          </mxGeometry>
        </mxCell>
        <mxCell id="HQbXodOyn_7Oqjs9133s-14" value="N" style="resizable=0;html=1;whiteSpace=wrap;align=right;verticalAlign=bottom;" connectable="0" vertex="1" parent="HQbXodOyn_7Oqjs9133s-13">
          <mxGeometry x="1" relative="1" as="geometry">
            <mxPoint x="10" as="offset" />
          </mxGeometry>
        </mxCell>
        <mxCell id="HQbXodOyn_7Oqjs9133s-15" value="Article_ID" style="ellipse;whiteSpace=wrap;html=1;align=center;fontStyle=4;" vertex="1" parent="1">
          <mxGeometry x="240" y="390" width="100" height="40" as="geometry" />
        </mxCell>
        <mxCell id="HQbXodOyn_7Oqjs9133s-16" value="TItle" style="ellipse;whiteSpace=wrap;html=1;align=center;" vertex="1" parent="1">
          <mxGeometry x="350" y="390" width="100" height="40" as="geometry" />
        </mxCell>
        <mxCell id="HQbXodOyn_7Oqjs9133s-17" value="Image" style="ellipse;whiteSpace=wrap;html=1;align=center;" vertex="1" parent="1">
          <mxGeometry x="460" y="390" width="100" height="40" as="geometry" />
        </mxCell>
        <mxCell id="HQbXodOyn_7Oqjs9133s-18" value="Text" style="ellipse;whiteSpace=wrap;html=1;align=center;" vertex="1" parent="1">
          <mxGeometry x="570" y="390" width="100" height="40" as="geometry" />
        </mxCell>
        <mxCell id="HQbXodOyn_7Oqjs9133s-22" value="" style="endArrow=none;html=1;rounded=0;exitX=0.5;exitY=0;exitDx=0;exitDy=0;entryX=0.5;entryY=1;entryDx=0;entryDy=0;" edge="1" parent="1" source="HQbXodOyn_7Oqjs9133s-15" target="HQbXodOyn_7Oqjs9133s-4">
          <mxGeometry relative="1" as="geometry">
            <mxPoint x="330" y="390" as="sourcePoint" />
            <mxPoint x="490" y="390" as="targetPoint" />
          </mxGeometry>
        </mxCell>
        <mxCell id="HQbXodOyn_7Oqjs9133s-23" value="" style="endArrow=none;html=1;rounded=0;exitX=0.5;exitY=0;exitDx=0;exitDy=0;entryX=0.5;entryY=1;entryDx=0;entryDy=0;" edge="1" parent="1" source="HQbXodOyn_7Oqjs9133s-16" target="HQbXodOyn_7Oqjs9133s-4">
          <mxGeometry relative="1" as="geometry">
            <mxPoint x="300" y="400" as="sourcePoint" />
            <mxPoint x="390" y="350" as="targetPoint" />
          </mxGeometry>
        </mxCell>
        <mxCell id="HQbXodOyn_7Oqjs9133s-24" value="" style="endArrow=none;html=1;rounded=0;exitX=0.5;exitY=0;exitDx=0;exitDy=0;entryX=0.5;entryY=1;entryDx=0;entryDy=0;" edge="1" parent="1" source="HQbXodOyn_7Oqjs9133s-17" target="HQbXodOyn_7Oqjs9133s-4">
          <mxGeometry relative="1" as="geometry">
            <mxPoint x="310" y="410" as="sourcePoint" />
            <mxPoint x="400" y="360" as="targetPoint" />
          </mxGeometry>
        </mxCell>
        <mxCell id="HQbXodOyn_7Oqjs9133s-25" value="" style="endArrow=none;html=1;rounded=0;exitX=0.5;exitY=0;exitDx=0;exitDy=0;entryX=0.5;entryY=1;entryDx=0;entryDy=0;" edge="1" parent="1" source="HQbXodOyn_7Oqjs9133s-18" target="HQbXodOyn_7Oqjs9133s-4">
          <mxGeometry relative="1" as="geometry">
            <mxPoint x="320" y="420" as="sourcePoint" />
            <mxPoint x="410" y="370" as="targetPoint" />
          </mxGeometry>
        </mxCell>
        <mxCell id="HQbXodOyn_7Oqjs9133s-27" value="Message" style="ellipse;whiteSpace=wrap;html=1;align=center;" vertex="1" parent="1">
          <mxGeometry x="780" y="90" width="100" height="40" as="geometry" />
        </mxCell>
        <mxCell id="HQbXodOyn_7Oqjs9133s-28" value="Chat_ID" style="ellipse;whiteSpace=wrap;html=1;align=center;fontStyle=4;" vertex="1" parent="1">
          <mxGeometry x="670" y="90" width="100" height="40" as="geometry" />
        </mxCell>
        <mxCell id="HQbXodOyn_7Oqjs9133s-30" value="" style="endArrow=none;html=1;rounded=0;exitX=0.5;exitY=0;exitDx=0;exitDy=0;entryX=0.5;entryY=1;entryDx=0;entryDy=0;" edge="1" parent="1" source="HQbXodOyn_7Oqjs9133s-3" target="HQbXodOyn_7Oqjs9133s-28">
          <mxGeometry relative="1" as="geometry">
            <mxPoint x="630" y="400" as="sourcePoint" />
            <mxPoint x="390" y="350" as="targetPoint" />
          </mxGeometry>
        </mxCell>
        <mxCell id="HQbXodOyn_7Oqjs9133s-31" value="" style="endArrow=none;html=1;rounded=0;exitX=0.5;exitY=0;exitDx=0;exitDy=0;entryX=0.5;entryY=1;entryDx=0;entryDy=0;" edge="1" parent="1" source="HQbXodOyn_7Oqjs9133s-3" target="HQbXodOyn_7Oqjs9133s-27">
          <mxGeometry relative="1" as="geometry">
            <mxPoint x="640" y="410" as="sourcePoint" />
            <mxPoint x="400" y="360" as="targetPoint" />
          </mxGeometry>
        </mxCell>
        <mxCell id="HQbXodOyn_7Oqjs9133s-32" value="Time" style="ellipse;whiteSpace=wrap;html=1;align=center;" vertex="1" parent="1">
          <mxGeometry x="890" y="90" width="100" height="40" as="geometry" />
        </mxCell>
        <mxCell id="HQbXodOyn_7Oqjs9133s-33" value="" style="endArrow=none;html=1;rounded=0;exitX=0.5;exitY=0;exitDx=0;exitDy=0;entryX=0.5;entryY=1;entryDx=0;entryDy=0;" edge="1" parent="1" source="HQbXodOyn_7Oqjs9133s-3" target="HQbXodOyn_7Oqjs9133s-32">
          <mxGeometry relative="1" as="geometry">
            <mxPoint x="570" y="190" as="sourcePoint" />
            <mxPoint x="660" y="150" as="targetPoint" />
          </mxGeometry>
        </mxCell>
        <mxCell id="HQbXodOyn_7Oqjs9133s-35" value="User_ID" style="ellipse;whiteSpace=wrap;html=1;align=center;fontStyle=4;" vertex="1" parent="1">
          <mxGeometry x="60" y="90" width="100" height="40" as="geometry" />
        </mxCell>
        <mxCell id="HQbXodOyn_7Oqjs9133s-36" value="Password" style="ellipse;whiteSpace=wrap;html=1;align=center;" vertex="1" parent="1">
          <mxGeometry x="170" y="90" width="100" height="40" as="geometry" />
        </mxCell>
        <mxCell id="HQbXodOyn_7Oqjs9133s-37" value="Name" style="ellipse;whiteSpace=wrap;html=1;align=center;" vertex="1" parent="1">
          <mxGeometry x="280" y="90" width="100" height="40" as="geometry" />
        </mxCell>
        <mxCell id="HQbXodOyn_7Oqjs9133s-38" value="Phone_number" style="ellipse;whiteSpace=wrap;html=1;align=center;" vertex="1" parent="1">
          <mxGeometry x="390" y="90" width="100" height="40" as="geometry" />
        </mxCell>
        <mxCell id="HQbXodOyn_7Oqjs9133s-39" value="Address" style="ellipse;whiteSpace=wrap;html=1;align=center;" vertex="1" parent="1">
          <mxGeometry x="500" y="90" width="100" height="40" as="geometry" />
        </mxCell>
        <mxCell id="HQbXodOyn_7Oqjs9133s-40" value="" style="endArrow=none;html=1;rounded=0;exitX=0.5;exitY=0;exitDx=0;exitDy=0;entryX=0.5;entryY=1;entryDx=0;entryDy=0;" edge="1" parent="1" source="HQbXodOyn_7Oqjs9133s-2" target="HQbXodOyn_7Oqjs9133s-35">
          <mxGeometry relative="1" as="geometry">
            <mxPoint x="850" y="190" as="sourcePoint" />
            <mxPoint x="800" y="140" as="targetPoint" />
          </mxGeometry>
        </mxCell>
        <mxCell id="HQbXodOyn_7Oqjs9133s-41" value="" style="endArrow=none;html=1;rounded=0;exitX=0.5;exitY=0;exitDx=0;exitDy=0;entryX=0.5;entryY=1;entryDx=0;entryDy=0;" edge="1" parent="1" source="HQbXodOyn_7Oqjs9133s-2" target="HQbXodOyn_7Oqjs9133s-36">
          <mxGeometry relative="1" as="geometry">
            <mxPoint x="200" y="190" as="sourcePoint" />
            <mxPoint x="120" y="140" as="targetPoint" />
          </mxGeometry>
        </mxCell>
        <mxCell id="HQbXodOyn_7Oqjs9133s-42" value="" style="endArrow=none;html=1;rounded=0;exitX=0.5;exitY=0;exitDx=0;exitDy=0;entryX=0.5;entryY=1;entryDx=0;entryDy=0;" edge="1" parent="1" source="HQbXodOyn_7Oqjs9133s-2" target="HQbXodOyn_7Oqjs9133s-37">
          <mxGeometry relative="1" as="geometry">
            <mxPoint x="210" y="200" as="sourcePoint" />
            <mxPoint x="130" y="150" as="targetPoint" />
          </mxGeometry>
        </mxCell>
        <mxCell id="HQbXodOyn_7Oqjs9133s-43" value="" style="endArrow=none;html=1;rounded=0;exitX=0.5;exitY=0;exitDx=0;exitDy=0;entryX=0.5;entryY=1;entryDx=0;entryDy=0;" edge="1" parent="1" source="HQbXodOyn_7Oqjs9133s-2" target="HQbXodOyn_7Oqjs9133s-38">
          <mxGeometry relative="1" as="geometry">
            <mxPoint x="220" y="210" as="sourcePoint" />
            <mxPoint x="140" y="160" as="targetPoint" />
          </mxGeometry>
        </mxCell>
        <mxCell id="HQbXodOyn_7Oqjs9133s-44" value="" style="endArrow=none;html=1;rounded=0;exitX=0.5;exitY=0;exitDx=0;exitDy=0;entryX=0.5;entryY=1;entryDx=0;entryDy=0;" edge="1" parent="1" source="HQbXodOyn_7Oqjs9133s-2" target="HQbXodOyn_7Oqjs9133s-39">
          <mxGeometry relative="1" as="geometry">
            <mxPoint x="230" y="220" as="sourcePoint" />
            <mxPoint x="150" y="170" as="targetPoint" />
          </mxGeometry>
        </mxCell>
        <mxCell id="HQbXodOyn_7Oqjs9133s-58" value="&lt;b&gt;&lt;font style=&quot;font-size: 20px;&quot;&gt;ERD&lt;/font&gt;&lt;/b&gt;" style="text;html=1;align=center;verticalAlign=middle;whiteSpace=wrap;rounded=0;" vertex="1" parent="1">
          <mxGeometry x="760" y="280" width="150" height="90" as="geometry" />
        </mxCell>
        <mxCell id="HQbXodOyn_7Oqjs9133s-59" value="" style="endArrow=none;html=1;rounded=0;exitX=0;exitY=0.47;exitDx=0;exitDy=0;exitPerimeter=0;entryX=0.998;entryY=0.465;entryDx=0;entryDy=0;entryPerimeter=0;" edge="1" parent="1" source="HQbXodOyn_7Oqjs9133s-1" target="HQbXodOyn_7Oqjs9133s-1">
          <mxGeometry width="50" height="50" relative="1" as="geometry">
            <mxPoint x="510" y="490" as="sourcePoint" />
            <mxPoint x="560" y="440" as="targetPoint" />
          </mxGeometry>
        </mxCell>
        <mxCell id="HQbXodOyn_7Oqjs9133s-60" value="&lt;b&gt;&lt;font style=&quot;font-size: 20px;&quot;&gt;Relational Model&lt;/font&gt;&lt;/b&gt;" style="text;html=1;align=center;verticalAlign=middle;whiteSpace=wrap;rounded=0;" vertex="1" parent="1">
          <mxGeometry x="730" y="440" width="200" height="90" as="geometry" />
        </mxCell>
        <mxCell id="HQbXodOyn_7Oqjs9133s-74" value="&lt;u&gt;Chat_ID&lt;/u&gt;" style="rounded=0;whiteSpace=wrap;html=1;" vertex="1" parent="1">
          <mxGeometry x="110" y="540" width="100" height="30" as="geometry" />
        </mxCell>
        <mxCell id="HQbXodOyn_7Oqjs9133s-75" value="Send_ID" style="rounded=0;whiteSpace=wrap;html=1;" vertex="1" parent="1">
          <mxGeometry x="210" y="540" width="100" height="30" as="geometry" />
        </mxCell>
        <mxCell id="HQbXodOyn_7Oqjs9133s-76" value="Receive_ID" style="rounded=0;whiteSpace=wrap;html=1;" vertex="1" parent="1">
          <mxGeometry x="310" y="540" width="100" height="30" as="geometry" />
        </mxCell>
        <mxCell id="HQbXodOyn_7Oqjs9133s-77" value="Message" style="rounded=0;whiteSpace=wrap;html=1;" vertex="1" parent="1">
          <mxGeometry x="410" y="540" width="100" height="30" as="geometry" />
        </mxCell>
        <mxCell id="HQbXodOyn_7Oqjs9133s-78" value="Time" style="rounded=0;whiteSpace=wrap;html=1;" vertex="1" parent="1">
          <mxGeometry x="505" y="540" width="100" height="30" as="geometry" />
        </mxCell>
        <mxCell id="HQbXodOyn_7Oqjs9133s-79" value="&lt;b&gt;&lt;font style=&quot;font-size: 15px;&quot;&gt;CHAT&lt;/font&gt;&lt;/b&gt;" style="text;html=1;align=center;verticalAlign=middle;whiteSpace=wrap;rounded=0;" vertex="1" parent="1">
          <mxGeometry x="102" y="518" width="60" height="30" as="geometry" />
        </mxCell>
        <mxCell id="HQbXodOyn_7Oqjs9133s-80" value="&lt;u&gt;User_ID&lt;/u&gt;" style="rounded=0;whiteSpace=wrap;html=1;" vertex="1" parent="1">
          <mxGeometry x="110" y="642" width="100" height="30" as="geometry" />
        </mxCell>
        <mxCell id="HQbXodOyn_7Oqjs9133s-81" value="Password" style="rounded=0;whiteSpace=wrap;html=1;" vertex="1" parent="1">
          <mxGeometry x="210" y="642" width="100" height="30" as="geometry" />
        </mxCell>
        <mxCell id="HQbXodOyn_7Oqjs9133s-82" value="Name" style="rounded=0;whiteSpace=wrap;html=1;" vertex="1" parent="1">
          <mxGeometry x="310" y="642" width="100" height="30" as="geometry" />
        </mxCell>
        <mxCell id="HQbXodOyn_7Oqjs9133s-83" value="Phone_number" style="rounded=0;whiteSpace=wrap;html=1;" vertex="1" parent="1">
          <mxGeometry x="410" y="642" width="100" height="30" as="geometry" />
        </mxCell>
        <mxCell id="HQbXodOyn_7Oqjs9133s-84" value="Address" style="rounded=0;whiteSpace=wrap;html=1;" vertex="1" parent="1">
          <mxGeometry x="505" y="642" width="100" height="30" as="geometry" />
        </mxCell>
        <mxCell id="HQbXodOyn_7Oqjs9133s-85" value="&lt;span style=&quot;font-size: 15px;&quot;&gt;&lt;b&gt;USER&lt;/b&gt;&lt;/span&gt;" style="text;html=1;align=center;verticalAlign=middle;whiteSpace=wrap;rounded=0;" vertex="1" parent="1">
          <mxGeometry x="102" y="620" width="60" height="30" as="geometry" />
        </mxCell>
        <mxCell id="HQbXodOyn_7Oqjs9133s-86" value="&lt;u&gt;Article_ID&lt;/u&gt;" style="rounded=0;whiteSpace=wrap;html=1;" vertex="1" parent="1">
          <mxGeometry x="110" y="742" width="100" height="30" as="geometry" />
        </mxCell>
        <mxCell id="HQbXodOyn_7Oqjs9133s-87" value="Title" style="rounded=0;whiteSpace=wrap;html=1;" vertex="1" parent="1">
          <mxGeometry x="310" y="742" width="100" height="30" as="geometry" />
        </mxCell>
        <mxCell id="HQbXodOyn_7Oqjs9133s-88" value="Image" style="rounded=0;whiteSpace=wrap;html=1;" vertex="1" parent="1">
          <mxGeometry x="410" y="742" width="100" height="30" as="geometry" />
        </mxCell>
        <mxCell id="HQbXodOyn_7Oqjs9133s-89" value="Text" style="rounded=0;whiteSpace=wrap;html=1;" vertex="1" parent="1">
          <mxGeometry x="510" y="742" width="100" height="30" as="geometry" />
        </mxCell>
        <mxCell id="HQbXodOyn_7Oqjs9133s-90" value="Time" style="rounded=0;whiteSpace=wrap;html=1;" vertex="1" parent="1">
          <mxGeometry x="605" y="742" width="100" height="30" as="geometry" />
        </mxCell>
        <mxCell id="HQbXodOyn_7Oqjs9133s-91" value="&lt;b&gt;&lt;font style=&quot;font-size: 15px;&quot;&gt;ARTICLE&lt;/font&gt;&lt;/b&gt;" style="text;html=1;align=center;verticalAlign=middle;whiteSpace=wrap;rounded=0;" vertex="1" parent="1">
          <mxGeometry x="113" y="720" width="60" height="30" as="geometry" />
        </mxCell>
        <mxCell id="HQbXodOyn_7Oqjs9133s-94" value="" style="endArrow=classic;html=1;rounded=0;entryX=0.604;entryY=0.99;entryDx=0;entryDy=0;entryPerimeter=0;exitX=0.534;exitY=0.983;exitDx=0;exitDy=0;exitPerimeter=0;" edge="1" parent="1" source="HQbXodOyn_7Oqjs9133s-76" target="HQbXodOyn_7Oqjs9133s-80">
          <mxGeometry width="50" height="50" relative="1" as="geometry">
            <mxPoint x="350" y="680" as="sourcePoint" />
            <mxPoint x="400" y="630" as="targetPoint" />
            <Array as="points">
              <mxPoint x="363" y="610" />
              <mxPoint x="640" y="610" />
              <mxPoint x="640" y="710" />
              <mxPoint x="170" y="710" />
            </Array>
          </mxGeometry>
        </mxCell>
        <mxCell id="HQbXodOyn_7Oqjs9133s-95" value="" style="endArrow=classic;html=1;rounded=0;exitX=0.5;exitY=1;exitDx=0;exitDy=0;entryX=0.25;entryY=1;entryDx=0;entryDy=0;" edge="1" parent="1" source="HQbXodOyn_7Oqjs9133s-75" target="HQbXodOyn_7Oqjs9133s-80">
          <mxGeometry width="50" height="50" relative="1" as="geometry">
            <mxPoint x="350" y="680" as="sourcePoint" />
            <mxPoint x="400" y="630" as="targetPoint" />
            <Array as="points">
              <mxPoint x="260" y="610" />
              <mxPoint x="100" y="610" />
              <mxPoint x="100" y="710" />
              <mxPoint x="135" y="710" />
            </Array>
          </mxGeometry>
        </mxCell>
        <mxCell id="HQbXodOyn_7Oqjs9133s-96" value="Owner_ID" style="rounded=0;whiteSpace=wrap;html=1;" vertex="1" parent="1">
          <mxGeometry x="210" y="742" width="100" height="30" as="geometry" />
        </mxCell>
        <mxCell id="HQbXodOyn_7Oqjs9133s-97" value="" style="endArrow=classic;html=1;rounded=0;exitX=0.5;exitY=1;exitDx=0;exitDy=0;entryX=0.4;entryY=1;entryDx=0;entryDy=0;entryPerimeter=0;" edge="1" parent="1" source="HQbXodOyn_7Oqjs9133s-96" target="HQbXodOyn_7Oqjs9133s-80">
          <mxGeometry width="50" height="50" relative="1" as="geometry">
            <mxPoint x="350" y="730" as="sourcePoint" />
            <mxPoint x="150" y="680" as="targetPoint" />
            <Array as="points">
              <mxPoint x="260" y="800" />
              <mxPoint x="90" y="800" />
              <mxPoint x="90" y="720" />
              <mxPoint x="150" y="720" />
            </Array>
          </mxGeometry>
        </mxCell>
        <mxCell id="HQbXodOyn_7Oqjs9133s-98" value="Time" style="ellipse;whiteSpace=wrap;html=1;align=center;" vertex="1" parent="1">
          <mxGeometry x="680" y="390" width="100" height="40" as="geometry" />
        </mxCell>
        <mxCell id="HQbXodOyn_7Oqjs9133s-99" value="" style="endArrow=none;html=1;rounded=0;exitX=0.352;exitY=0.029;exitDx=0;exitDy=0;entryX=0.5;entryY=1;entryDx=0;entryDy=0;exitPerimeter=0;" edge="1" parent="1" source="HQbXodOyn_7Oqjs9133s-98" target="HQbXodOyn_7Oqjs9133s-4">
          <mxGeometry relative="1" as="geometry">
            <mxPoint x="630" y="400" as="sourcePoint" />
            <mxPoint x="390" y="350" as="targetPoint" />
          </mxGeometry>
        </mxCell>
      </root>
    </mxGraphModel>
  </diagram>
</mxfile>
